#!OML:ASF H:\Terrain\Patient Classification 1\Takeo\Monday\TakeoMonday.ASF
:FULLY-SPECIFIED
:DEGREES
1126
root 20.2169 14.4767 -1.07052 -25.7439 -60.7102 29.6615
lowerback 29.2153 -0.28297 6.17859
upperback 12.5099 0.57049 5.0796
thorax -1.91452 -0.0133626 1.90262
lowerneck -15.722 11.6334 5.48515
upperneck 2.0768 16.3652 -20.6017
head 5.51296 7.02386 -5.58383
rclavicle -1.27222e-014 1.59028e-014
rhumerus 29.0553 -50.8414 -76.8816
rradius 33.5988
rwrist -34.4636
rhand -53.5541 30.9455
rfingers 7.12502
rthumb -25.9964 2.70373
lclavicle -1.27222e-014 1.59028e-014
lhumerus 4.66266 -1.46499 70.0795
lradius 73.3273
lwrist 25.6584
lhand -27.0338 15.4715
lfingers 7.12502
lthumb -0.452781 45.4507
rfemur -39.0008 -7.76332 -8.18109
rtibia 83.2826
rfoot -32.4616 -32.4453
rtoes 5.86961
lfemur -49.8421 21.0114 -38.3494
ltibia 75.7642
lfoot -24.0837 4.25447
ltoes 6.35505
1127
root 20.2093 14.4839 -1.04547 -24.8339 -59.6901 28.9279
lowerback 28.7717 -0.196972 6.39705
upperback 12.3973 0.73927 5.05999
thorax -1.83409 0.0952883 1.70125
lowerneck -15.9201 11.2194 4.97261
upperneck 2.18344 15.8027 -19.7327
head 5.37098 6.77627 -5.31047
rclavicle 4.77083e-014 -4.13472e-014
rhumerus 29.877 -50.2291 -78.1998
rradius 33.4141
rwrist -34.3458
rhand -53.5463 29.7675
rfingers 7.12502
rthumb -25.9889 1.52467
lclavicle 4.77083e-014 -4.13472e-014
lhumerus 5.2774 -1.94503 69.6424
lradius 73.095
lwrist 25.671
lhand -26.8494 15.3285
lfingers 7.12502
lthumb -0.274657 45.308
rfemur -38.484 -8.03987 -8.43039
rtibia 83.0975
rfoot -32.3002 -33.1468
rtoes 6.2572
lfemur -49.7052 20.3722 -38.7281
ltibia 75.4439
lfoot -23.9172 4.22003
ltoes 4.25591
1128
root 20.2128 14.5139 -1.01122 -23.0867 -58.784 26.946
lowerback 28.5257 -0.302748 7.29329
upperback 12.3692 0.83228 5.24961
thorax -1.71953 0.176105 1.37479
lowerneck -16.2822 10.9366 4.85271
upperneck 2.26406 15.4168 -19.4932
head 5.37416 6.57357 -5.25811
rclavicle -2.8625e-014 4.13472e-014
rhumerus 31.1037 -49.5625 -79.7448
rradius 32.9354
rwrist -34.0082
rhand -54.1761 30.1056
rfingers 7.12502
rthumb -26.5918 1.9527
lclavicle -2.8625e-014 4.13472e-014
lhumerus 6.0037 -2.47707 69.1131
lradius 72.9099
lwrist 25.6512
lhand -26.7831 15.4519
lfingers 7.12502
lthumb -0.210556 45.4316
rfemur -37.4745 -8.28634 -7.94629
rtibia 82.7194
rfoot -32.2657 -33.9127
rtoes 6.66317
lfemur -49.3257 19.3777 -38.2822
ltibia 75.1768
lfoot -23.6628 4.40678
ltoes 2.87411
1129
root 20.2218 14.5445 -0.979723 -21.2524 -57.9587 24.6474
lowerback 28.4258 -0.369949 8.3515
upperback 12.425 1.01026 5.65456
thorax -1.5627 0.292811 1.17611
lowerneck -16.9995 10.5505 4.29022
upperneck 2.6554 15.0024 -19.0148
head 5.4723 6.32507 -5.05138
rclavicle -2.22639e-014 -1.90833e-014
rhumerus 32.8834 -48.8883 -81.4955
rradius 32.2473
rwrist -33.7272
rhand -54.7132 31.9494
rfingers 7.12502
rthumb -27.1058 3.87542
lclavicle -2.22639e-014 -1.90833e-014
lhumerus 6.8865 -2.86039 68.9576
lradius 72.7426
lwrist 25.704
lhand -26.6723 15.6846
lfingers 7.12502
lthumb -0.103588 45.6643
rfemur -36.3676 -8.50668 -7.18394
rtibia 82.2725
rfoot -32.3687 -34.482
rtoes 7.48486
lfemur -48.8824 18.3907 -37.4431
ltibia 74.9535
lfoot -23.3949 4.10008
ltoes 3.76557
1130
root 20.2207 14.569 -0.953918 -19.9344 -57.3351 22.9919
lowerback 28.2895 -0.304305 8.99272
upperback 12.4139 1.2555 5.99262
thorax -1.47764 0.429619 1.12084
lowerneck -17.2913 10.195 3.96984
upperneck 2.91148 14.5881 -18.738
head 5.50129 6.1026 -4.96162
rclavicle -8.5875e-014 -7.31528e-014
rhumerus 34.1467 -47.8769 -82.8971
rradius 31.7721
rwrist -33.5561
rhand -55.1759 33.6344
rfingers 7.12502
rthumb -27.5484 5.63017
lclavicle -8.5875e-014 -7.31528e-014
lhumerus 7.39244 -2.95118 68.9676
lradius 72.6862
lwrist 25.8315
lhand -26.1148 15.6856
lfingers 7.12502
lthumb 0.434862 45.6649
rfemur -35.4861 -8.46935 -6.59295
rtibia 81.7942
rfoot -32.5334 -34.7529
rtoes 8.66406
lfemur -48.5513 17.9206 -36.8576
ltibia 74.7193
lfoot -23.0318 3.68695
ltoes 3.46813
1131
root 20.211 14.5984 -0.925577 -19.4764 -56.5651 22.1508
lowerback 28.4591 -0.239901 9.02923
upperback 12.2545 1.41413 6.22515
thorax -1.73642 0.49682 1.31231
lowerneck -16.8985 9.99267 4.35316
upperneck 2.78512 14.2671 -19.2449
head 5.43941 5.9511 -5.23871
rclavicle 3.18055e-015 1.90833e-014
rhumerus 35.0687 -46.7529 -84.3146
rradius 31.4
rwrist -33.1512
rhand -54.5453 33.7654
rfingers 7.12502
rthumb -26.9452 5.66655
lclavicle 3.18055e-015 1.90833e-014
lhumerus 7.38639 -2.93997 68.8801
lradius 72.7684
lwrist 25.6733
lhand -25.3013 15.9974
lfingers 7.12502
lthumb 1.22055 45.9736
rfemur -34.306 -8.45787 -6.51961
rtibia 81.2775
rfoot -32.7819 -34.9639
rtoes 9.35055
lfemur -47.8453 17.5483 -36.7076
ltibia 74.3777
lfoot -22.6952 3.56662
ltoes 2.37144
1132
root 20.2013 14.6243 -0.899409 -19.6642 -55.5942 21.9685
lowerback 28.6719 -0.0552616 8.84897
upperback 12.1755 1.66509 6.37968
thorax -1.93252 0.609124 1.51181
lowerneck -16.8933 9.60372 4.21462
upperneck 2.8692 13.7667 -19.2105
head 5.39348 5.70201 -5.27516
rclavicle -1.145e-013 -3.81667e-014
rhumerus 36.5685 -46.2848 -86.2619
rradius 30.9158
rwrist -32.3075
rhand -53.2459 31.5441
rfingers 7.12502
rthumb -25.7013 3.25931
lclavicle -1.145e-013 -3.81667e-014
lhumerus 7.88697 -3.36792 68.5502
lradius 72.7482
lwrist 25.8969
lhand -25.157 16.5215
lfingers 7.12502
lthumb 1.3599 46.4969
rfemur -33.0279 -8.69328 -6.94699
rtibia 80.8073
rfoot -32.9763 -35.2297
rtoes 9.98293
lfemur -46.9085 17.0206 -36.9105
ltibia 73.9556
lfoot -22.5786 3.36243
ltoes 1.58
1133
root 20.196 14.6469 -0.875708 -19.6302 -54.7784 21.8037
lowerback 28.4882 0.222848 8.8668
upperback 12.224 2.01074 6.40307
thorax -1.78411 0.792464 1.42801
lowerneck -17.4136 9.12546 3.93254
upperneck 3.17889 13.1658 -18.7737
head 5.44592 5.3824 -5.15732
rclavicle 3.81667e-014 6.67916e-014
rhumerus 38.0177 -45.7619 -88.0495
rradius 30.4182
rwrist -31.7132
rhand -52.8596 28.7846
rfingers 7.12502
rthumb -25.3313 0.446928
lclavicle 3.81667e-014 6.67916e-014
lhumerus 8.90369 -3.99113 67.8891
lradius 72.6398
lwrist 26.5397
lhand -25.9385 16.5738
lfingers 7.12502
lthumb 0.605152 46.5527
rfemur -32.1928 -8.94 -7.31068
rtibia 80.38
rfoot -33.1016 -35.4807
rtoes 10.7278
lfemur -46.3305 16.5639 -37.1742
ltibia 73.5477
lfoot -22.5458 3.07382
ltoes 0.54928
1134
root 20.191 14.6685 -0.850034 -18.8432 -53.7636 20.8985
lowerback 28.0843 0.234027 9.25882
upperback 12.2238 2.09205 6.4243
thorax -1.57147 0.862261 1.21108
lowerneck -17.7824 8.83634 4.08348
upperneck 3.33564 12.74 -18.5983
head 5.50028 5.15873 -5.17232
rclavicle -1.33583e-013 -1.20861e-013
rhumerus 39.0705 -44.6507 -89.6003
rradius 29.9425
rwrist -31.5825
rhand -52.6969 27.9015
rfingers 7.12502
rthumb -25.1754 -0.458242
lclavicle -1.33583e-013 -1.20861e-013
lhumerus 9.71432 -4.2583 67.2166
lradius 72.5115
lwrist 26.551
lhand -26.6876 16.2639
lfingers 7.12502
lthumb -0.118407 46.2436
rfemur -31.3228 -9.23917 -7.24387
rtibia 79.9726
rfoot -33.6178 -35.7055
rtoes 11.6285
lfemur -46.0049 15.8622 -37.1315
ltibia 73.1923
lfoot -22.3548 2.71347
ltoes 0.987456
1135
root 20.1775 14.6883 -0.82557 -18.2696 -52.4131 20.236
lowerback 27.7007 0.208859 9.37352
upperback 12.0825 2.09357 6.59791
thorax -1.55531 0.873417 1.33797
lowerneck -17.7228 8.44314 3.48136
upperneck 3.40599 12.2678 -17.9756
head 5.36779 4.95855 -4.94377
rclavicle -3.18055e-014 0
rhumerus 39.5529 -43.358 -90.3808
rradius 29.6314
rwrist -31.6577
rhand -52.4246 27.9033
rfingers 7.12502
rthumb -24.9145 -0.492801
lclavicle -3.18055e-014 0
lhumerus 10.224 -4.37167 67.0849
lradius 72.2907
lwrist 25.8717
lhand -26.5972 16.4199
lfingers 7.12502
lthumb -0.0310117 46.3996
rfemur -30.2424 -9.78857 -7.4203
rtibia 79.5774
rfoot -34.2268 -35.8912
rtoes 13.2587
lfemur -45.6027 14.8965 -37.26
ltibia 72.8259
lfoot -22.0585 2.31405
ltoes 2.35765
1136
root 20.1568 14.7155 -0.80401 -18.2174 -51.2401 20.2251
lowerback 27.4113 0.443862 9.07831
upperback 11.8651 2.35324 6.76394
thorax -1.6893 0.994546 1.61103
lowerneck -17.5671 7.81612 2.50765
upperneck 3.47723 11.5266 -17.1195
head 5.15968 4.63925 -4.61748
rclavicle -1.11319e-013 -2.8625e-014
rhumerus 39.4821 -42.0458 -90.3477
rradius 29.3504
rwrist -31.9536
rhand -52.6213 27.0373
rfingers 7.12502
rthumb -25.1029 -1.33259
lclavicle -1.11319e-013 -2.8625e-014
lhumerus 10.7233 -4.72009 67.1461
lradius 72.0982
lwrist 25.3884
lhand -26.1442 16.6918
lfingers 7.12502
lthumb 0.406464 46.6711
rfemur -29.2859 -10.3847 -7.90893
rtibia 79.1476
rfoot -34.2116 -36.3421
rtoes 13.9824
lfemur -45.1413 14.1606 -37.6894
ltibia 72.4176
lfoot -21.7737 2.08774
ltoes 2.32496
